<svg id="Capa_1" data-name="Capa 1" xmlns="http://www.w3.org/2000/svg" xmlns:xlink="http://www.w3.org/1999/xlink" viewBox="0 0 214.21 37.06"><defs><linearGradient id="Degradado_sin_nombre_22" x1="13.25" y1="0.25" x2="13.25" y2="36.82" gradientUnits="userSpaceOnUse"><stop offset="0" stop-color="#fff"/><stop offset="0.32" stop-color="#e6e6e6"/><stop offset="0.68" stop-color="#ccc"/><stop offset="0.99" stop-color="#b3b3b3"/></linearGradient><linearGradient id="Degradado_sin_nombre_22-2" x1="45.76" y1="0.25" x2="45.76" y2="36.82" xlink:href="#Degradado_sin_nombre_22"/><linearGradient id="Degradado_sin_nombre_22-3" x1="78.64" y1="0.25" x2="78.64" y2="36.82" xlink:href="#Degradado_sin_nombre_22"/><linearGradient id="Degradado_sin_nombre_22-4" x1="113.12" y1="0.25" x2="113.12" y2="36.82" xlink:href="#Degradado_sin_nombre_22"/><linearGradient id="Degradado_sin_nombre_31" x1="208.82" y1="35.64" x2="205.82" y2="-38.61" gradientUnits="userSpaceOnUse"><stop offset="0" stop-color="#ff005c"/><stop offset="0.54" stop-color="#ff063d"/><stop offset="0.99" stop-color="#b70030"/></linearGradient><linearGradient id="Degradado_sin_nombre_31-2" x1="208.63" y1="35.54" x2="208.4" y2="29.87" xlink:href="#Degradado_sin_nombre_31"/><linearGradient id="Degradado_sin_nombre_31-3" x1="150" y1="38.02" x2="147" y2="-36.23" xlink:href="#Degradado_sin_nombre_31"/><linearGradient id="Degradado_sin_nombre_31-4" x1="177.63" y1="36.9" x2="174.63" y2="-37.35" xlink:href="#Degradado_sin_nombre_31"/><linearGradient id="Degradado_sin_nombre_31-5" x1="202.38" y1="35.9" x2="199.38" y2="-38.35" xlink:href="#Degradado_sin_nombre_31"/><linearGradient id="Degradado_sin_nombre_31-6" x1="163.3" y1="37.48" x2="160.3" y2="-36.77" xlink:href="#Degradado_sin_nombre_31"/><linearGradient id="Degradado_sin_nombre_31-7" x1="174.89" y1="37.01" x2="171.89" y2="-37.24" xlink:href="#Degradado_sin_nombre_31"/></defs><title>LOGO ORKO</title><path d="M16.95,36.31a0.45,0.45,0,0,1-.51.51H10.06a0.45,0.45,0,0,1-.51-0.51V7.39A0.45,0.45,0,0,0,9,6.88H0.73A0.45,0.45,0,0,1,.22,6.37V0.76A0.45,0.45,0,0,1,.73.25h25a0.45,0.45,0,0,1,.51.51V6.37a0.45,0.45,0,0,1-.51.51H17.46a0.45,0.45,0,0,0-.51.51V36.31Z" style="fill:url(#Degradado_sin_nombre_22)"/><path d="M33.11,8A8.27,8.27,0,0,1,35,2.41,6.84,6.84,0,0,1,40.46.25H57.75a0.53,0.53,0,0,1,.66.51V6.37a0.45,0.45,0,0,1-.51.51H41a0.47,0.47,0,0,0-.51.56v6.94a0.45,0.45,0,0,0,.51.51H56.68a0.45,0.45,0,0,1,.51.51v5.87a0.45,0.45,0,0,1-.51.51H41a0.45,0.45,0,0,0-.51.51v7.4a0.45,0.45,0,0,0,.51.51H57.9a0.45,0.45,0,0,1,.51.51v5.61a0.45,0.45,0,0,1-.51.51H38.16a3.91,3.91,0,0,1-1.84-.48,6.15,6.15,0,0,1-1.63-1.25,6.38,6.38,0,0,1-1.15-1.71,4.54,4.54,0,0,1-.43-1.91V8Z" style="fill:url(#Degradado_sin_nombre_22-2)"/><path d="M66.11,11.62a13.64,13.64,0,0,1,.61-4.13,6.39,6.39,0,0,1,.84-1.91,17.49,17.49,0,0,1,1.1-1.45,11.11,11.11,0,0,1,3.77-2.86,11,11,0,0,1,4.69-1H90.65a0.45,0.45,0,0,1,.51.51V6.37a0.45,0.45,0,0,1-.51.51H77.44a4.25,4.25,0,0,0-3,2.07,8.48,8.48,0,0,0-1,4.31v12.9A4.52,4.52,0,0,0,74.66,29a4.17,4.17,0,0,0,2.78,1.2H90.65a0.45,0.45,0,0,1,.51.51v5.61a0.45,0.45,0,0,1-.51.51H77.59a11.66,11.66,0,0,1-2.7-.28,13.66,13.66,0,0,1-2-.64,9.11,9.11,0,0,1-3.47-2.32,13,13,0,0,1-2.5-3.85,10.13,10.13,0,0,1-.51-1.5,9,9,0,0,1-.25-2.32V11.62Z" style="fill:url(#Degradado_sin_nombre_22-3)"/><path d="M99.16,0.76A0.45,0.45,0,0,1,99.67.25h6.38a0.45,0.45,0,0,1,.51.51V14.63a0.45,0.45,0,0,0,.51.51h12.09a0.45,0.45,0,0,0,.51-0.51V0.76a0.45,0.45,0,0,1,.51-0.51h6.38a0.45,0.45,0,0,1,.51.51V36.31a0.45,0.45,0,0,1-.51.51h-6.37a0.45,0.45,0,0,1-.51-0.51v-14a0.45,0.45,0,0,0-.51-0.51H107.07a0.45,0.45,0,0,0-.51.51v14a0.45,0.45,0,0,1-.51.51H99.67a0.45,0.45,0,0,1-.51-0.51V0.76Z" style="fill:url(#Degradado_sin_nombre_22-4)"/><path d="M207.56,34.13V31.41h1.21a1.61,1.61,0,0,1,.55.07,0.61,0.61,0,0,1,.3.26,0.78,0.78,0,0,1,.11.41,0.68,0.68,0,0,1-.19.49,1,1,0,0,1-.58.25,0.94,0.94,0,0,1,.22.14,1.9,1.9,0,0,1,.3.36L210,34.13H209.5l-0.36-.57c-0.11-.16-0.19-0.29-0.26-0.37A0.81,0.81,0,0,0,208.7,33a0.53,0.53,0,0,0-.16-0.07h-0.62v1.21h-0.36Zm0.36-1.52h0.77a1.15,1.15,0,0,0,.39-0.05,0.41,0.41,0,0,0,.21-0.16,0.45,0.45,0,0,0,.07-0.24,0.41,0.41,0,0,0-.14-0.32,0.66,0.66,0,0,0-.44-0.12h-0.86v0.9Z" style="fill:url(#Degradado_sin_nombre_31)"/><circle cx="208.52" cy="32.71" r="2.69" style="fill:none;stroke-miterlimit:10;stroke-width:0.30000001192092896px;stroke:url(#Degradado_sin_nombre_31-2)"/><path d="M133.53,7.19h5.07l4.15,11.75,4.47-11.75h3.1l4.39,11.62,4.16-11.62H164l-7.54,20.65h-3.28l-4.4-11.77-4.54,11.77H141Z" style="fill:url(#Degradado_sin_nombre_31-3)"/><path d="M182.15,7.19h5.18V27.84h-5.18V25.66a10.16,10.16,0,0,1-3,2.08,8.52,8.52,0,0,1-3.31.64,9.19,9.19,0,0,1-6.92-3.1A10.82,10.82,0,0,1,166,17.56a11.1,11.1,0,0,1,2.83-7.84,9,9,0,0,1,6.86-3.06,8.73,8.73,0,0,1,3.49.7,9.54,9.54,0,0,1,3,2.11V7.19Zm-5.45,4.25a5.24,5.24,0,0,0-4,1.7,6.12,6.12,0,0,0-1.59,4.36,6.19,6.19,0,0,0,1.62,4.4,5.24,5.24,0,0,0,4,1.73,5.33,5.33,0,0,0,4-1.7,6.21,6.21,0,0,0,1.61-4.45,6,6,0,0,0-1.61-4.37A5.4,5.4,0,0,0,176.7,11.44Z" style="fill:url(#Degradado_sin_nombre_31-4)"/><path d="M190.28,7.19h5.29l5.36,13,5.92-13h5.31L199.23,35.4h-5.35l4.25-9.09Z" style="fill:url(#Degradado_sin_nombre_31-5)"/><polygon points="191.78 35.4 133.67 35.4 133.67 33.52 192.69 33.52 191.78 35.4" style="fill:url(#Degradado_sin_nombre_31-6)"/><polygon points="212.93 3.54 133.2 3.54 133.2 1.67 213.79 1.67 212.93 3.54" style="fill:url(#Degradado_sin_nombre_31-7)"/></svg>